<mxfile host="app.diagrams.net" agent="Mozilla/5.0 (Macintosh; Intel Mac OS X 10_15_7) AppleWebKit/537.36 (KHTML, like Gecko) Chrome/129.0.0.0 Safari/537.36" version="24.7.17">
  <diagram name="Page-1" id="VWrhilGXgUzdepdlM65o">
    <mxGraphModel dx="1026" dy="1750" grid="1" gridSize="10" guides="1" tooltips="1" connect="1" arrows="1" fold="1" page="1" pageScale="1" pageWidth="850" pageHeight="1100" math="0" shadow="0">
      <root>
        <mxCell id="0" />
        <mxCell id="1" parent="0" />
        <mxCell id="yxdo92FYSPbkNkSeU0Dq-6" style="edgeStyle=orthogonalEdgeStyle;rounded=0;orthogonalLoop=1;jettySize=auto;html=1;entryX=0;entryY=0.5;entryDx=0;entryDy=0;" edge="1" parent="1" source="yxdo92FYSPbkNkSeU0Dq-1" target="yxdo92FYSPbkNkSeU0Dq-5">
          <mxGeometry relative="1" as="geometry" />
        </mxCell>
        <mxCell id="yxdo92FYSPbkNkSeU0Dq-7" value="1.1 Dispatch&amp;nbsp;&lt;div&gt;ReadyToSyncExchangeRate&amp;nbsp;&lt;/div&gt;&lt;div&gt;Event&lt;/div&gt;" style="edgeLabel;html=1;align=center;verticalAlign=middle;resizable=0;points=[];" vertex="1" connectable="0" parent="yxdo92FYSPbkNkSeU0Dq-6">
          <mxGeometry x="-0.2444" y="1" relative="1" as="geometry">
            <mxPoint x="23" y="1" as="offset" />
          </mxGeometry>
        </mxCell>
        <mxCell id="yxdo92FYSPbkNkSeU0Dq-11" style="edgeStyle=orthogonalEdgeStyle;rounded=0;orthogonalLoop=1;jettySize=auto;html=1;entryX=0.5;entryY=1;entryDx=0;entryDy=0;" edge="1" parent="1">
          <mxGeometry relative="1" as="geometry">
            <mxPoint x="170" y="120" as="sourcePoint" />
            <mxPoint x="170" y="20" as="targetPoint" />
          </mxGeometry>
        </mxCell>
        <mxCell id="yxdo92FYSPbkNkSeU0Dq-12" value="1.3 Fetch exchange rate" style="edgeLabel;html=1;align=center;verticalAlign=middle;resizable=0;points=[];" vertex="1" connectable="0" parent="yxdo92FYSPbkNkSeU0Dq-11">
          <mxGeometry x="-0.06" y="-1" relative="1" as="geometry">
            <mxPoint y="-19" as="offset" />
          </mxGeometry>
        </mxCell>
        <mxCell id="yxdo92FYSPbkNkSeU0Dq-16" style="edgeStyle=orthogonalEdgeStyle;rounded=0;orthogonalLoop=1;jettySize=auto;html=1;" edge="1" parent="1" source="yxdo92FYSPbkNkSeU0Dq-1" target="yxdo92FYSPbkNkSeU0Dq-15">
          <mxGeometry relative="1" as="geometry" />
        </mxCell>
        <mxCell id="yxdo92FYSPbkNkSeU0Dq-17" value="1.5 Update Exchange Rates" style="edgeLabel;html=1;align=center;verticalAlign=middle;resizable=0;points=[];" vertex="1" connectable="0" parent="yxdo92FYSPbkNkSeU0Dq-16">
          <mxGeometry x="0.15" y="1" relative="1" as="geometry">
            <mxPoint y="1" as="offset" />
          </mxGeometry>
        </mxCell>
        <mxCell id="yxdo92FYSPbkNkSeU0Dq-1" value="Reporting Service" style="whiteSpace=wrap;html=1;aspect=fixed;" vertex="1" parent="1">
          <mxGeometry x="150" y="120" width="80" height="80" as="geometry" />
        </mxCell>
        <mxCell id="yxdo92FYSPbkNkSeU0Dq-2" style="edgeStyle=orthogonalEdgeStyle;rounded=0;orthogonalLoop=1;jettySize=auto;html=1;entryX=0;entryY=0.75;entryDx=0;entryDy=0;" edge="1" parent="1" source="yxdo92FYSPbkNkSeU0Dq-1" target="yxdo92FYSPbkNkSeU0Dq-1">
          <mxGeometry relative="1" as="geometry">
            <Array as="points">
              <mxPoint x="160" y="100" />
              <mxPoint x="80" y="100" />
              <mxPoint x="80" y="180" />
            </Array>
          </mxGeometry>
        </mxCell>
        <mxCell id="yxdo92FYSPbkNkSeU0Dq-3" value="1.0 Scheduled Trigger at&amp;nbsp;&lt;div&gt;12:01 AM Midnight&lt;/div&gt;" style="edgeLabel;html=1;align=center;verticalAlign=middle;resizable=0;points=[];" vertex="1" connectable="0" parent="yxdo92FYSPbkNkSeU0Dq-2">
          <mxGeometry x="0.3" relative="1" as="geometry">
            <mxPoint y="-15" as="offset" />
          </mxGeometry>
        </mxCell>
        <mxCell id="yxdo92FYSPbkNkSeU0Dq-13" style="edgeStyle=orthogonalEdgeStyle;rounded=0;orthogonalLoop=1;jettySize=auto;html=1;entryX=0.75;entryY=0;entryDx=0;entryDy=0;exitX=0.75;exitY=1;exitDx=0;exitDy=0;" edge="1" parent="1" source="yxdo92FYSPbkNkSeU0Dq-4" target="yxdo92FYSPbkNkSeU0Dq-1">
          <mxGeometry relative="1" as="geometry" />
        </mxCell>
        <mxCell id="yxdo92FYSPbkNkSeU0Dq-14" value="1.4 Return exchange Rate" style="edgeLabel;html=1;align=center;verticalAlign=middle;resizable=0;points=[];" vertex="1" connectable="0" parent="yxdo92FYSPbkNkSeU0Dq-13">
          <mxGeometry x="0.18" relative="1" as="geometry">
            <mxPoint as="offset" />
          </mxGeometry>
        </mxCell>
        <mxCell id="yxdo92FYSPbkNkSeU0Dq-4" value="Exchange Rate Api" style="whiteSpace=wrap;html=1;aspect=fixed;" vertex="1" parent="1">
          <mxGeometry x="150" y="-60" width="80" height="80" as="geometry" />
        </mxCell>
        <mxCell id="yxdo92FYSPbkNkSeU0Dq-8" style="edgeStyle=orthogonalEdgeStyle;rounded=0;orthogonalLoop=1;jettySize=auto;html=1;entryX=0.5;entryY=1;entryDx=0;entryDy=0;" edge="1" parent="1" source="yxdo92FYSPbkNkSeU0Dq-5" target="yxdo92FYSPbkNkSeU0Dq-1">
          <mxGeometry relative="1" as="geometry">
            <Array as="points">
              <mxPoint x="450" y="220" />
              <mxPoint x="190" y="220" />
            </Array>
          </mxGeometry>
        </mxCell>
        <mxCell id="yxdo92FYSPbkNkSeU0Dq-9" value="1.2 Consume&amp;nbsp;&lt;div&gt;ReadyToSyncExchangeRate&amp;nbsp;&lt;br&gt;Event&amp;nbsp;&lt;/div&gt;" style="edgeLabel;html=1;align=center;verticalAlign=middle;resizable=0;points=[];" vertex="1" connectable="0" parent="yxdo92FYSPbkNkSeU0Dq-8">
          <mxGeometry x="-0.0867" y="2" relative="1" as="geometry">
            <mxPoint as="offset" />
          </mxGeometry>
        </mxCell>
        <mxCell id="yxdo92FYSPbkNkSeU0Dq-5" value="Event Broker" style="whiteSpace=wrap;html=1;aspect=fixed;" vertex="1" parent="1">
          <mxGeometry x="410" y="120" width="80" height="80" as="geometry" />
        </mxCell>
        <mxCell id="yxdo92FYSPbkNkSeU0Dq-15" value="Reporting Db" style="shape=cylinder3;whiteSpace=wrap;html=1;boundedLbl=1;backgroundOutline=1;size=15;" vertex="1" parent="1">
          <mxGeometry x="160" y="300" width="60" height="80" as="geometry" />
        </mxCell>
      </root>
    </mxGraphModel>
  </diagram>
</mxfile>
